<svg width="360" height="100" viewBox="0 0 360 100" fill="none" xmlns="http://www.w3.org/2000/svg">
<path fill-rule="evenodd" clip-rule="evenodd" d="M122.7 25.5L122 26.2V73.8L122.7 74.5H131.1L131.8 73.8V41.6H132.5L151.4 73.8L152.8 74.5H162.6L163.3 73.8V26.2L162.6 25.5H154.2L153.5 26.2V58.4H152.8L133.9 26.2L132.5 25.5H122.7ZM203.9 57C203.9 68.2 196.9 75.2 186.4 75.2C175.9 75.2 168.9 68.2 168.9 57C168.9 45.8 175.9 38.8 186.4 38.8C196.9 38.8 203.9 45.8 203.9 57ZM194.1 57C194.1 50.7 191.3 47.2 186.4 47.2C181.5 47.2 178.7 50.7 178.7 57C178.7 63.3 181.5 66.8 186.4 66.8C191.3 66.8 194.1 63.3 194.1 57ZM287.182 74.5L287.882 73.8V52.8C287.882 43.7 282.982 38.8 274.582 38.8C266.882 38.8 264.082 43.7 264.082 43.7H263.382C261.982 41.6 259.182 38.8 253.582 38.8C247.282 38.8 245.182 42.3 245.182 42.3H244.482L243.782 40.2L243.082 39.5H235.382L234.682 40.2V73.8L235.382 74.5H243.782L244.482 73.8V54.9C244.482 50 246.582 47.2 250.782 47.2C254.982 47.2 256.382 50 256.382 53.5V73.8L257.082 74.5H265.482L266.182 73.8V54.9C266.182 50 268.282 47.2 272.482 47.2C276.682 47.2 278.082 50 278.082 53.5V73.8L278.782 74.5H287.182ZM230.47 47.9L231.17 47.2V40.2L230.47 39.5H226.27C219.97 39.5 218.57 42.3 218.57 42.3H217.87L217.17 40.2L216.47 39.5H208.77L208.07 40.2V73.8L208.77 74.5H217.17L217.87 73.8V57C217.87 50.7 219.97 47.9 225.57 47.9H230.47ZM356.327 33.2L355.627 33.9H347.227L346.527 33.2V26.2L347.227 25.5H355.627L356.327 26.2V33.2ZM356.327 73.8L355.627 74.5H347.227L346.527 73.8V40.2L347.227 39.5H355.627L356.327 40.2V73.8ZM342.301 74.5L343.001 73.8V66.8L326.901 26.2L326.201 25.5H317.101L316.401 26.2L300.301 66.8V73.8L301.001 74.5H307.301L308.001 73.8L311.501 64.7L312.901 64H330.401L331.801 64.7L335.301 73.8L336.001 74.5H342.301ZM322.001 38.1L328.301 54.9L327.601 55.6H315.701L315.001 54.9L321.301 38.1H322.001Z" fill="#2800D7"/>
<g clip-path="url(#clip0_49_1074)">
<rect width="100" height="100" rx="23.875" fill="#2800D7"/>
<path fill-rule="evenodd" clip-rule="evenodd" d="M21.6746 70.3771L21.2949 68.6438C28.9967 56.3159 33.5326 41.8095 33.7636 26.2468L35.0229 24.9963L42.5229 24.9963L43.7646 26.247C43.5319 43.7937 38.4091 60.1737 29.6956 74.0706L27.9745 74.4467L21.6746 70.3771ZM53.7498 25H46.2498L44.9998 26.25V73.75L46.2498 75H53.7498L54.9998 73.75V26.25L53.7498 25ZM78.7278 31.3525L78.3481 29.6192L72.0483 25.5496L70.3272 25.9257C61.6137 39.8226 56.4909 56.2026 56.2582 73.7493L57.4999 75H64.9999L66.2591 73.7495C66.4901 58.1868 71.0261 43.6804 78.7278 31.3525Z" fill="white"/>
</g>
<defs>
<clipPath id="clip0_49_1074">
<rect width="100" height="100" rx="23.875" fill="white"/>
</clipPath>
</defs>
</svg>
